<?xml version="1.0" encoding="UTF-8" standalone="no"?>
<!DOCTYPE svg PUBLIC "-//W3C//DTD SVG 1.1//EN" "http://www.w3.org/Graphics/SVG/1.1/DTD/svg11.dtd">
<svg xmlns="http://www.w3.org/2000/svg" version="1.1" viewBox="0.00 0.00 640.00 390.00">
<g stroke-width="2.00" fill="none" stroke-linecap="butt">
<path stroke="#135ddc" vector-effect="non-scaling-stroke" d="
  M 270.25 21.70
  L 269.14 22.53
  Q 268.80 22.78 269.10 23.08
  L 269.38 23.36
  A 0.79 0.79 0.0 0 1 269.43 24.41
  Q 267.12 27.29 265.07 30.04
  Q 264.28 31.11 263.77 32.38
  Q 263.72 32.51 263.85 32.54
  Q 263.98 32.57 264.10 32.60
  Q 264.18 32.62 264.12 32.69
  L 261.08 36.21"
/>
<path stroke="#135ddc" vector-effect="non-scaling-stroke" d="
  M 140.86 126.07
  L 129.34 137.43"
/>
<path stroke="#1055d4" vector-effect="non-scaling-stroke" d="
  M 238.53 213.57
  Q 236.82 217.56 236.26 222.25
  C 236.12 223.40 236.48 225.94 235.94 227.19
  Q 235.65 227.86 234.92 227.84
  Q 234.27 227.83 234.52 228.42
  L 234.76 229.02"
/>
<path stroke="#1055d4" vector-effect="non-scaling-stroke" d="
  M 301.56 59.84
  L 290.54 48.48"
/>
<path stroke="#1055d4" vector-effect="non-scaling-stroke" d="
  M 236.12 125.91
  L 224.57 137.49"
/>
<path stroke="#1055d4" vector-effect="non-scaling-stroke" d="
  M 208.06 153.54
  L 206.85 153.33
  Q 206.40 153.26 206.22 152.84
  L 201.72 142.46
  A 1.32 1.29 39.9 0 1 201.64 141.66
  Q 201.81 140.89 201.13 140.58
  Q 200.56 140.33 200.71 139.72
  Q 200.96 138.70 200.27 138.90"
/>
<path stroke="#1055d4" vector-effect="non-scaling-stroke" d="
  M 277.61 167.61
  Q 277.04 167.95 276.83 168.31
  Q 276.52 168.81 277.03 169.12
  Q 277.54 169.44 277.25 169.98
  Q 276.99 170.45 276.90 170.97
  Q 276.51 173.26 276.56 175.63
  Q 276.62 178.07 276.05 180.29
  Q 275.43 182.74 275.53 185.00
  Q 275.55 185.54 275.07 185.77
  Q 274.42 186.09 273.87 186.76"
/>
<path stroke="#1564e4" vector-effect="non-scaling-stroke" d="
  M 510.63 137.28
  Q 504.14 132.03 499.06 125.77"
/>
<path stroke="#135ddc" vector-effect="non-scaling-stroke" d="
  M 387.29 35.98
  Q 385.90 35.54 384.58 35.62
  Q 383.91 35.66 384.03 35.00
  Q 384.17 34.17 383.36 34.00
  Q 382.91 33.91 382.77 33.48
  Q 382.33 32.11 380.96 31.53
  Q 380.03 31.14 379.79 30.18
  Q 379.68 29.72 379.33 29.41
  C 377.54 27.76 376.30 25.65 374.78 23.66
  Q 373.84 22.43 374.69 20.98"
/>
<path stroke="#0d4dcb" vector-effect="non-scaling-stroke" d="
  M 349.45 48.44
  L 338.62 59.79"
/>
</g>
<path fill="#1b74f5" d="
  M 270.25 21.70
  L 269.14 22.53
  Q 268.80 22.78 269.10 23.08
  L 269.38 23.36
  A 0.79 0.79 0.0 0 1 269.43 24.41
  Q 267.12 27.29 265.07 30.04
  Q 264.28 31.11 263.77 32.38
  Q 263.72 32.51 263.85 32.54
  Q 263.98 32.57 264.10 32.60
  Q 264.18 32.62 264.12 32.69
  L 261.08 36.21
  Q 238.94 34.15 221.54 46.02
  Q 216.61 49.38 206.67 59.33
  Q 178.28 87.74 149.95 116.20
  Q 143.72 122.45 140.86 126.07
  L 129.34 137.43
  Q 123.05 131.80 122.04 129.42
  Q 119.77 124.06 123.30 120.55
  Q 161.85 82.10 200.30 43.57
  Q 229.11 14.71 270.25 21.70
  Z"
/>
<path fill="#1b74f5" d="
  M 510.63 137.28
  Q 504.14 132.03 499.06 125.77
  Q 491.27 117.21 483.03 109.06
  Q 469.91 96.09 469.86 96.05
  C 456.36 82.42 442.63 68.97 429.29 55.19
  Q 424.09 49.83 417.88 45.65
  Q 403.76 36.15 387.29 35.98
  Q 385.90 35.54 384.58 35.62
  Q 383.91 35.66 384.03 35.00
  Q 384.17 34.17 383.36 34.00
  Q 382.91 33.91 382.77 33.48
  Q 382.33 32.11 380.96 31.53
  Q 380.03 31.14 379.79 30.18
  Q 379.68 29.72 379.33 29.41
  C 377.54 27.76 376.30 25.65 374.78 23.66
  Q 373.84 22.43 374.69 20.98
  C 399.11 17.90 422.20 26.01 439.26 43.13
  Q 477.36 81.37 515.40 119.11
  C 522.97 126.63 515.99 132.21 510.63 137.28
  Z"
/>
<path fill="#0a45c3" d="
  M 374.69 20.98
  Q 373.84 22.43 374.78 23.66
  C 376.30 25.65 377.54 27.76 379.33 29.41
  Q 379.68 29.72 379.79 30.18
  Q 380.03 31.14 380.96 31.53
  Q 382.33 32.11 382.77 33.48
  Q 382.91 33.91 383.36 34.00
  Q 384.17 34.17 384.03 35.00
  Q 383.91 35.66 384.58 35.62
  Q 385.90 35.54 387.29 35.98
  Q 364.84 35.39 349.45 48.44
  L 338.62 59.79
  Q 334.67 56.76 331.61 52.87
  C 328.32 48.67 329.49 44.07 333.34 40.70
  C 345.43 30.09 358.66 22.99 374.69 20.98
  Z"
/>
<path fill="#0a45c3" d="
  M 270.25 21.70
  C 283.97 24.50 295.42 30.88 305.87 39.85
  C 314.67 47.40 308.38 54.29 301.56 59.84
  L 290.54 48.48
  Q 280.28 39.17 265.73 37.07
  Q 263.53 36.75 261.08 36.21
  L 264.12 32.69
  Q 264.18 32.62 264.10 32.60
  Q 263.98 32.57 263.85 32.54
  Q 263.72 32.51 263.77 32.38
  Q 264.28 31.11 265.07 30.04
  Q 267.12 27.29 269.43 24.41
  A 0.79 0.79 0.0 0 0 269.38 23.36
  L 269.10 23.08
  Q 268.80 22.78 269.14 22.53
  L 270.25 21.70
  Z"
/>
<path fill="#1565e4" d="
  M 290.54 48.48
  L 301.56 59.84
  L 236.12 125.91
  L 224.57 137.49
  L 208.06 153.54
  L 206.85 153.33
  Q 206.40 153.26 206.22 152.84
  L 201.72 142.46
  A 1.32 1.29 39.9 0 1 201.64 141.66
  Q 201.81 140.89 201.13 140.58
  Q 200.56 140.33 200.71 139.72
  Q 200.96 138.70 200.27 138.90
  L 290.54 48.48
  Z"
/>
<path fill="#0f54d3" d="
  M 349.45 48.44
  L 462.06 160.94
  Q 463.33 162.20 464.61 160.95
  Q 480.23 145.65 495.71 129.97
  Q 497.75 127.90 499.06 125.77
  Q 504.14 132.03 510.63 137.28
  Q 479.58 168.49 448.54 199.64
  Q 436.79 211.43 434.23 213.59
  Q 416.42 228.62 392.45 231.28
  C 375.28 233.18 356.04 228.34 341.65 217.63
  C 336.56 213.85 328.11 209.50 330.11 201.70
  Q 330.63 199.69 333.08 197.20
  C 355.65 174.21 378.51 151.61 400.91 129.16
  Q 402.05 128.03 403.15 126.74
  Q 404.01 125.74 403.08 124.80
  L 338.62 59.79
  L 349.45 48.44
  Z
  M 414.30 138.58
  Q 382.69 170.11 352.15 200.69
  Q 351.09 201.76 350.25 203.00
  Q 349.57 204.02 350.58 204.73
  C 371.06 219.07 398.27 219.46 418.54 205.41
  Q 424.36 201.38 432.02 193.48
  C 438.22 187.08 444.97 181.06 450.83 174.38
  Q 451.51 173.60 450.82 172.82
  Q 448.28 169.98 445.65 167.35
  Q 431.46 153.18 417.00 138.59
  A 1.91 1.90 45.1 0 0 414.30 138.58
  Z"
/>
<path fill="#0a45c3" d="
  M 236.12 125.91
  L 277.61 167.61
  Q 277.04 167.95 276.83 168.31
  Q 276.52 168.81 277.03 169.12
  Q 277.54 169.44 277.25 169.98
  Q 276.99 170.45 276.90 170.97
  Q 276.51 173.26 276.56 175.63
  Q 276.62 178.07 276.05 180.29
  Q 275.43 182.74 275.53 185.00
  Q 275.55 185.54 275.07 185.77
  Q 274.42 186.09 273.87 186.76
  L 224.57 137.49
  L 236.12 125.91
  Z"
/>
<path fill="#0a45c3" d="
  M 140.86 126.07
  L 175.49 160.90
  A 1.93 1.92 -44.9 0 0 178.22 160.90
  L 200.27 138.90
  Q 200.96 138.70 200.71 139.72
  Q 200.56 140.33 201.13 140.58
  Q 201.81 140.89 201.64 141.66
  A 1.32 1.29 39.9 0 0 201.72 142.46
  L 206.22 152.84
  Q 206.40 153.26 206.85 153.33
  L 208.06 153.54
  L 189.37 172.42
  A 1.51 1.50 44.6 0 0 189.39 174.55
  Q 198.86 183.83 208.43 193.77
  Q 215.98 201.61 221.71 205.52
  Q 229.59 210.89 238.53 213.57
  Q 236.82 217.56 236.26 222.25
  C 236.12 223.40 236.48 225.94 235.94 227.19
  Q 235.65 227.86 234.92 227.84
  Q 234.27 227.83 234.52 228.42
  L 234.76 229.02
  Q 214.99 223.36 200.43 208.82
  Q 164.61 173.05 129.34 137.43
  L 140.86 126.07
  Z"
/>
<path fill="#1565e4" d="
  M 277.61 167.61
  Q 300.71 190.65 307.42 197.58
  Q 312.70 203.04 308.32 209.53
  Q 306.89 211.63 302.22 214.94
  C 297.59 218.20 292.84 221.66 288.04 223.95
  Q 262.73 236.03 234.76 229.02
  L 234.52 228.42
  Q 234.27 227.83 234.92 227.84
  Q 235.65 227.86 235.94 227.19
  C 236.48 225.94 236.12 223.40 236.26 222.25
  Q 236.82 217.56 238.53 213.57
  C 256.15 218.14 274.56 215.29 289.24 204.63
  Q 290.69 203.58 289.42 202.31
  L 273.87 186.76
  Q 274.42 186.09 275.07 185.77
  Q 275.55 185.54 275.53 185.00
  Q 275.43 182.74 276.05 180.29
  Q 276.62 178.07 276.56 175.63
  Q 276.51 173.26 276.90 170.97
  Q 276.99 170.45 277.25 169.98
  Q 277.54 169.44 277.03 169.12
  Q 276.52 168.81 276.83 168.31
  Q 277.04 167.95 277.61 167.61
  Z"
/>
<path fill="#2f2f2d" d="
  M 360.52 309.31
  C 361.62 301.30 364.88 291.53 372.04 287.74
  Q 377.09 285.06 383.55 284.36
  Q 395.65 283.04 404.73 285.74
  C 414.06 288.51 418.06 296.47 419.73 305.45
  Q 423.26 324.46 420.63 344.76
  C 419.40 354.22 415.83 364.20 406.13 367.13
  C 396.41 370.06 383.06 370.26 373.24 366.56
  C 365.10 363.50 361.69 354.09 360.56 345.84
  Q 358.04 327.47 360.52 309.31
  Z
  M 381.44 288.03
  C 369.31 289.83 365.27 299.80 364.22 310.54
  Q 362.44 328.57 364.49 345.53
  C 365.65 355.06 369.59 363.26 379.96 365.09
  C 388.27 366.56 402.19 367.14 409.08 361.41
  C 414.08 357.25 416.24 348.90 416.79 342.57
  C 417.63 333.01 417.63 323.37 417.19 313.73
  C 416.72 303.39 414.03 291.01 402.05 288.49
  Q 392.19 286.43 381.44 288.03
  Z"
/>
<path fill="#2f2f2d" d="
  M 15.82 286.20
  A 1.77 1.77 0.0 0 1 17.60 284.44
  L 48.80 284.60
  A 33.15 25.25 -89.7 0 1 73.88 317.88
  L 73.78 335.66
  A 33.15 25.25 -89.7 0 1 48.36 368.68
  L 17.16 368.52
  A 1.77 1.77 0.0 0 1 15.40 366.74
  L 15.82 286.20
  Z
  M 19.67 288.93
  L 19.81 364.05
  A 1.23 1.23 0.0 0 0 21.04 365.28
  L 48.14 365.23
  A 30.09 21.67 89.9 0 0 69.76 335.11
  L 69.72 317.71
  A 30.09 21.67 89.9 0 0 48.00 287.65
  L 20.90 287.70
  A 1.23 1.23 0.0 0 0 19.67 288.93
  Z"
/>
<path fill="#2f2f2d" d="
  M 96.34 324.78
  A 0.46 0.45 -11.8 0 0 96.76 325.05
  L 135.94 325.47
  Q 136.65 325.48 136.68 326.19
  L 136.74 327.68
  A 0.92 0.92 0.0 0 1 135.83 328.64
  L 97.25 328.91
  A 1.19 1.19 0.0 0 0 96.07 330.09
  Q 96.00 342.74 96.13 354.17
  C 96.23 362.37 100.69 365.41 108.46 365.36
  Q 124.68 365.26 140.85 365.27
  Q 141.49 365.27 141.49 365.92
  L 141.48 367.97
  Q 141.48 368.57 140.87 368.59
  Q 121.71 369.10 105.97 368.83
  Q 96.43 368.66 93.43 362.24
  Q 91.81 358.77 91.89 351.37
  Q 92.17 328.78 91.88 302.92
  Q 91.80 295.68 93.34 292.37
  C 96.14 286.37 101.38 284.86 107.86 284.82
  Q 124.81 284.72 140.60 285.36
  Q 141.48 285.40 141.47 286.27
  L 141.45 287.20
  A 1.23 1.23 0.0 0 1 140.19 288.42
  Q 122.27 288.04 106.54 288.27
  C 97.81 288.41 95.92 295.30 96.00 303.00
  Q 96.10 313.61 96.10 323.67
  Q 96.10 324.24 96.34 324.78
  Z"
/>
<path fill="#2f2f2d" d="
  M 186.41 361.75
  Q 187.77 365.58 189.15 361.75
  L 216.43 285.64
  A 1.41 1.41 0.0 0 1 217.77 284.71
  L 219.95 284.72
  A 0.69 0.69 0.0 0 1 220.59 285.67
  Q 218.84 289.91 217.50 293.77
  Q 207.57 322.39 191.54 366.04
  Q 191.10 367.24 190.49 368.20
  Q 190.26 368.55 189.84 368.54
  L 185.61 368.38
  A 1.06 1.06 0.0 0 1 184.66 367.68
  L 155.31 285.80
  Q 154.97 284.85 155.98 284.81
  L 158.04 284.72
  Q 158.95 284.68 159.26 285.54
  L 186.41 361.75
  Z"
/>
<path fill="#2f2f2d" d="
  M 237.70 330.29
  Q 237.62 342.55 237.79 354.62
  Q 237.93 365.40 248.98 365.33
  Q 264.55 365.24 282.10 365.31
  A 1.07 1.06 -84.8 0 1 283.14 366.57
  Q 283.12 366.71 283.10 366.85
  A 1.90 1.89 -86.9 0 1 281.30 368.47
  Q 261.76 369.24 246.49 368.71
  C 237.31 368.40 233.55 362.78 233.53 354.04
  Q 233.49 326.30 233.53 300.17
  C 233.55 292.09 237.94 285.03 246.62 284.85
  Q 262.19 284.53 282.09 285.46
  Q 283.20 285.51 283.01 286.60
  Q 282.99 286.73 282.96 286.86
  Q 282.64 288.26 281.21 288.24
  Q 266.22 288.05 249.26 288.10
  C 240.63 288.12 237.56 293.38 237.65 301.30
  Q 237.80 314.14 237.77 324.47
  A 0.70 0.69 90.0 0 0 238.46 325.17
  L 277.20 325.45
  Q 278.20 325.45 278.14 326.45
  L 278.07 327.58
  Q 278.02 328.36 277.24 328.44
  Q 275.11 328.64 273.06 328.64
  Q 258.26 328.70 239.14 328.84
  Q 237.71 328.85 237.70 330.29
  Z"
/>
<path fill="#2f2f2d" d="
  M 313.63 368.42
  C 305.38 368.25 300.99 362.32 300.95 354.46
  Q 300.77 318.70 301.37 285.97
  Q 301.39 284.82 302.53 284.78
  L 303.50 284.76
  Q 304.76 284.72 304.66 285.98
  C 304.40 288.99 304.59 291.89 304.65 294.85
  Q 305.18 322.70 304.99 351.71
  C 304.94 359.24 306.97 364.97 315.65 364.97
  Q 329.75 364.97 347.05 365.13
  Q 348.42 365.15 348.45 366.51
  L 348.46 366.97
  Q 348.50 368.46 347.01 368.47
  Q 323.68 368.64 313.63 368.42
  Z"
/>
<path fill="#2f2f2d" d="
  M 444.56 335.98
  A 0.71 0.70 0.4 0 0 443.84 336.68
  L 443.76 367.26
  Q 443.76 368.79 442.23 368.73
  L 441.25 368.69
  Q 439.85 368.64 439.86 367.25
  L 439.90 285.52
  Q 439.90 284.82 440.59 284.81
  Q 457.00 284.62 473.31 284.93
  C 484.15 285.14 489.91 291.57 491.72 301.69
  Q 493.19 309.95 491.87 318.75
  C 490.01 331.18 481.23 336.94 468.83 336.60
  Q 455.50 336.23 444.56 335.98
  Z
  M 443.73 289.09
  L 443.95 332.13
  A 1.13 1.13 0.0 0 0 445.09 333.25
  L 471.91 333.11
  A 17.68 16.47 89.7 0 0 488.29 315.34
  L 488.23 305.40
  A 17.68 16.47 89.7 0 0 471.67 287.81
  L 444.85 287.95
  A 1.13 1.13 0.0 0 0 443.73 289.09
  Z"
/>
<path fill="#2f2f2d" d="
  M 513.27 325.06
  L 552.22 325.50
  Q 553.19 325.51 553.17 326.48
  L 553.14 327.57
  Q 553.11 328.57 552.11 328.58
  L 513.75 328.95
  A 1.03 1.03 0.0 0 0 512.73 329.97
  Q 512.64 342.19 512.71 354.67
  Q 512.78 365.38 524.14 365.34
  Q 540.38 365.27 556.91 365.30
  A 1.10 1.10 0.0 0 1 558.01 366.43
  L 557.99 366.90
  A 1.59 1.59 0.0 0 1 556.45 368.45
  Q 538.31 369.15 521.41 368.82
  C 516.15 368.72 510.83 366.08 509.40 361.00
  Q 508.42 357.52 508.41 353.81
  Q 508.31 325.84 508.49 299.65
  C 508.55 290.47 513.79 284.91 522.60 284.87
  Q 542.34 284.77 557.01 285.44
  Q 558.05 285.48 558.01 286.53
  L 558.00 286.93
  Q 557.96 288.07 556.82 288.09
  Q 542.90 288.37 525.34 288.15
  C 516.01 288.03 512.45 292.83 512.59 301.75
  Q 512.77 313.32 512.75 324.53
  A 0.53 0.53 0.0 0 0 513.27 325.06
  Z"
/>
<path fill="#2f2f2d" d="
  M 580.03 332.22
  L 579.81 367.59
  Q 579.80 368.73 578.66 368.74
  L 577.02 368.77
  A 0.90 0.89 -3.0 0 1 576.10 367.95
  Q 575.88 365.42 575.87 362.78
  Q 575.77 323.87 576.03 285.49
  A 0.58 0.58 0.0 0 1 576.61 284.91
  Q 591.41 284.76 607.88 284.87
  C 616.52 284.93 624.89 287.98 627.15 297.07
  Q 629.74 307.50 627.45 317.58
  Q 624.75 329.47 612.17 331.82
  A 1.19 1.18 71.8 0 0 611.32 333.51
  L 628.00 367.45
  Q 628.58 368.61 627.28 368.59
  L 626.04 368.57
  Q 624.69 368.55 624.07 367.34
  Q 615.40 350.25 607.78 333.97
  A 3.30 3.29 77.7 0 0 604.85 332.08
  L 580.59 331.68
  A 0.55 0.55 0.0 0 0 580.03 332.22
  Z
  M 579.86 289.32
  L 580.00 327.52
  A 1.31 1.31 0.0 0 0 581.31 328.82
  L 608.64 328.73
  A 16.00 15.82 89.8 0 0 624.41 312.67
  L 624.37 303.85
  A 16.00 15.82 89.8 0 0 608.50 287.91
  L 581.17 288.00
  A 1.31 1.31 0.0 0 0 579.86 289.32
  Z"
/>
</svg>
